<?xml version="1.0" encoding="UTF-8" standalone="no"?>
<!DOCTYPE svg PUBLIC "-//W3C//DTD SVG 1.1//EN"
 "http://www.w3.org/Graphics/SVG/1.1/DTD/svg11.dtd">
<!-- Generated by graphviz version 2.47.3 (20210619.1520)
 -->
<!-- Title: dependencies Pages: 1 -->
<svg width="542pt" height="174pt"
 viewBox="0.00 0.00 542.00 173.80" xmlns="http://www.w3.org/2000/svg" xmlns:xlink="http://www.w3.org/1999/xlink">
<g id="graph0" class="graph" transform="scale(1 1) rotate(0) translate(4 169.8)">
<title>dependencies</title>
<polygon fill="white" stroke="transparent" points="-4,4 -4,-169.8 538,-169.8 538,4 -4,4"/>
<text text-anchor="middle" x="267" y="-8.2" font-family="sans-serif" font-size="14.00">dependencies</text>
<g id="clust1" class="cluster">
<title>cluster_GameZone</title>
<polygon fill="none" stroke="black" stroke-dasharray="1,5" points="8,-32.8 8,-157.8 526,-157.8 526,-32.8 8,-32.8"/>
</g>
<g id="clust6" class="cluster">
<title>cluster_GameZone_providers</title>
<polygon fill="none" stroke="black" points="324,-40.8 324,-92.8 518,-92.8 518,-40.8 324,-40.8"/>
</g>
<g id="clust3" class="cluster">
<title>cluster_GameZone_imports</title>
<polygon fill="none" stroke="black" points="16,-40.8 16,-92.8 316,-92.8 316,-40.8 16,-40.8"/>
</g>
<!-- GameService -->
<g id="node1" class="node">
<title>GameService</title>
<polygon fill="#8dd3c7" stroke="black" points="307.9,-84.8 304.9,-88.8 283.9,-88.8 280.9,-84.8 216.1,-84.8 216.1,-48.8 307.9,-48.8 307.9,-84.8"/>
<text text-anchor="middle" x="262" y="-62.6" font-family="Times,serif" font-size="14.00">GameService</text>
</g>
<!-- GameZone -->
<g id="node4" class="node">
<title>GameZone</title>
<polygon fill="#8dd3c7" stroke="black" points="380.19,-149.8 377.19,-153.8 356.19,-153.8 353.19,-149.8 301.81,-149.8 301.81,-113.8 380.19,-113.8 380.19,-149.8"/>
<text text-anchor="middle" x="341" y="-127.6" font-family="Times,serif" font-size="14.00">GameZone</text>
</g>
<!-- GameService&#45;&gt;GameZone -->
<g id="edge1" class="edge">
<title>GameService&#45;&gt;GameZone</title>
<path fill="none" stroke="black" d="M307.73,-66.8C314.73,-66.8 319.68,-66.8 319.68,-66.8 319.68,-66.8 319.68,-103.69 319.68,-103.69"/>
<polygon fill="black" stroke="black" points="316.19,-103.69 319.68,-113.69 323.19,-103.69 316.19,-103.69"/>
</g>
<!-- NextBlockGeneratorService -->
<g id="node2" class="node">
<title>NextBlockGeneratorService</title>
<polygon fill="#8dd3c7" stroke="black" points="198.09,-84.8 195.09,-88.8 174.09,-88.8 171.09,-84.8 23.91,-84.8 23.91,-48.8 198.09,-48.8 198.09,-84.8"/>
<text text-anchor="middle" x="111" y="-62.6" font-family="Times,serif" font-size="14.00">NextBlockGeneratorService</text>
</g>
<!-- NextBlockGeneratorService&#45;&gt;GameZone -->
<g id="edge2" class="edge">
<title>NextBlockGeneratorService&#45;&gt;GameZone</title>
<path fill="none" stroke="black" d="M111,-84.91C111,-104.14 111,-131.8 111,-131.8 111,-131.8 291.72,-131.8 291.72,-131.8"/>
<polygon fill="black" stroke="black" points="291.72,-135.3 301.72,-131.8 291.72,-128.3 291.72,-135.3"/>
</g>
<!-- ZoneFactoryService -->
<g id="node3" class="node">
<title>ZoneFactoryService</title>
<ellipse fill="#8dd3c7" stroke="black" cx="421" cy="-66.8" rx="89.16" ry="18"/>
<text text-anchor="middle" x="421" y="-62.6" font-family="Times,serif" font-size="14.00">ZoneFactoryService</text>
</g>
<!-- ZoneFactoryService&#45;&gt;GameZone -->
<g id="edge3" class="edge">
<title>ZoneFactoryService&#45;&gt;GameZone</title>
<path fill="none" stroke="black" d="M347.81,-77.24C347.81,-77.24 347.81,-103.77 347.81,-103.77"/>
<polygon fill="black" stroke="black" points="344.31,-103.77 347.81,-113.77 351.31,-103.77 344.31,-103.77"/>
</g>
<!-- ZoneFactoryService&#45;&gt;GameZone -->
<g id="edge4" class="edge">
<title>ZoneFactoryService&#45;&gt;GameZone</title>
<path fill="none" stroke="black" d="M363.95,-80.9C363.95,-80.9 363.95,-103.52 363.95,-103.52"/>
<polygon fill="black" stroke="black" points="360.45,-103.52 363.95,-113.52 367.45,-103.52 360.45,-103.52"/>
</g>
</g>
</svg>
