<svg xmlns="http://www.w3.org/2000/svg" xmlns:xlink="http://www.w3.org/1999/xlink" width="542pt" height="232" viewBox="0 0 542 173.8"><g id="graph0" class="graph" transform="scale(1 1) rotate(0) translate(4 169.8)"><title>dependencies</title><polygon fill="#fff" stroke="transparent" points="-4 4 -4 -169.8 538 -169.8 538 4 -4 4"/><text x="267" y="-8.2" font-family="sans-serif" font-size="14" text-anchor="middle">dependencies</text><g id="clust1" class="cluster"><title>cluster_GameZone</title><polygon fill="none" stroke="#000" stroke-dasharray="1 5" points="8 -32.8 8 -157.8 526 -157.8 526 -32.8 8 -32.8"/></g><g id="clust6" class="cluster"><title>cluster_GameZone_providers</title><polygon fill="none" stroke="#000" points="324 -40.8 324 -92.8 518 -92.8 518 -40.8 324 -40.8"/></g><g id="clust3" class="cluster"><title>cluster_GameZone_imports</title><polygon fill="none" stroke="#000" points="16 -40.8 16 -92.8 316 -92.8 316 -40.8 16 -40.8"/></g><g id="node1" class="node"><title>GameService</title><polygon fill="#8dd3c7" stroke="#000" points="307.9 -84.8 304.9 -88.8 283.9 -88.8 280.9 -84.8 216.1 -84.8 216.1 -48.8 307.9 -48.8 307.9 -84.8"/><text x="262" y="-62.6" font-family="Times,serif" font-size="14" text-anchor="middle">GameService</text></g><g id="node4" class="node"><title>GameZone</title><polygon fill="#8dd3c7" stroke="#000" points="380.19 -149.8 377.19 -153.8 356.19 -153.8 353.19 -149.8 301.81 -149.8 301.81 -113.8 380.19 -113.8 380.19 -149.8"/><text x="341" y="-127.6" font-family="Times,serif" font-size="14" text-anchor="middle">GameZone</text></g><g id="edge1" class="edge"><title>GameService-&gt;GameZone</title><path fill="none" stroke="#000" d="M307.73,-66.8C314.73,-66.8 319.68,-66.8 319.68,-66.8 319.68,-66.8 319.68,-103.69 319.68,-103.69"/><polygon fill="#000" stroke="#000" points="316.19 -103.69 319.68 -113.69 323.19 -103.69 316.19 -103.69"/></g><g id="node2" class="node"><title>NextBlockGeneratorService</title><polygon fill="#8dd3c7" stroke="#000" points="198.09 -84.8 195.09 -88.8 174.09 -88.8 171.09 -84.8 23.91 -84.8 23.91 -48.8 198.09 -48.8 198.09 -84.8"/><text x="111" y="-62.6" font-family="Times,serif" font-size="14" text-anchor="middle">NextBlockGeneratorService</text></g><g id="edge2" class="edge"><title>NextBlockGeneratorService-&gt;GameZone</title><path fill="none" stroke="#000" d="M111,-84.91C111,-104.14 111,-131.8 111,-131.8 111,-131.8 291.72,-131.8 291.72,-131.8"/><polygon fill="#000" stroke="#000" points="291.72 -135.3 301.72 -131.8 291.72 -128.3 291.72 -135.3"/></g><g id="node3" class="node"><title>ZoneFactoryService</title><ellipse cx="421" cy="-66.8" fill="#8dd3c7" stroke="#000" rx="89.16" ry="18"/><text x="421" y="-62.6" font-family="Times,serif" font-size="14" text-anchor="middle">ZoneFactoryService</text></g><g id="edge3" class="edge"><title>ZoneFactoryService-&gt;GameZone</title><path fill="none" stroke="#000" d="M347.81,-77.24C347.81,-77.24 347.81,-103.77 347.81,-103.77"/><polygon fill="#000" stroke="#000" points="344.31 -103.77 347.81 -113.77 351.31 -103.77 344.31 -103.77"/></g><g id="edge4" class="edge"><title>ZoneFactoryService-&gt;GameZone</title><path fill="none" stroke="#000" d="M363.95,-80.9C363.95,-80.9 363.95,-103.52 363.95,-103.52"/><polygon fill="#000" stroke="#000" points="360.45 -103.52 363.95 -113.52 367.45 -103.52 360.45 -103.52"/></g></g></svg>