<svg xmlns="http://www.w3.org/2000/svg" xmlns:xlink="http://www.w3.org/1999/xlink" width="624" height="232" viewBox="0 0 468 173.8"><g id="graph0" class="graph" transform="scale(1 1) rotate(0) translate(4 169.8)"><title>dependencies</title><polygon fill="#fff" stroke="transparent" points="-4 4 -4 -169.8 464 -169.8 464 4 -4 4"/><text x="230" y="-8.2" font-family="sans-serif" font-size="14" text-anchor="middle">dependencies</text><g id="clust1" class="cluster"><title>cluster_NextBlockGeneratorModule</title><polygon fill="none" stroke="#000" stroke-dasharray="1 5" points="8 -32.8 8 -157.8 452 -157.8 452 -32.8 8 -32.8"/></g><g id="clust6" class="cluster"><title>cluster_NextBlockGeneratorModule_providers</title><polygon fill="none" stroke="#000" points="188 -40.8 188 -92.8 444 -92.8 444 -40.8 188 -40.8"/></g><g id="clust3" class="cluster"><title>cluster_NextBlockGeneratorModule_imports</title><polygon fill="none" stroke="#000" points="16 -40.8 16 -92.8 180 -92.8 180 -40.8 16 -40.8"/></g><g id="node1" class="node"><title>BlockGeneratorService</title><polygon fill="#8dd3c7" stroke="#000" points="171.88 -84.8 168.88 -88.8 147.88 -88.8 144.88 -84.8 24.12 -84.8 24.12 -48.8 171.88 -48.8 171.88 -84.8"/><text x="98" y="-62.6" font-family="Times,serif" font-size="14" text-anchor="middle">BlockGeneratorService</text></g><g id="node2" class="node"><title>NextBlockGeneratorModule</title><polygon fill="#8dd3c7" stroke="#000" points="298.17 -149.8 295.17 -153.8 274.17 -153.8 271.17 -149.8 121.83 -149.8 121.83 -113.8 298.17 -113.8 298.17 -149.8"/><text x="210" y="-127.6" font-family="Times,serif" font-size="14" text-anchor="middle">NextBlockGeneratorModule</text></g><g id="edge1" class="edge"><title>BlockGeneratorService-&gt;NextBlockGeneratorModule</title><path fill="none" stroke="#000" d="M146.8,-84.91C146.8,-84.91 146.8,-103.79 146.8,-103.79"/><polygon fill="#000" stroke="#000" points="143.3 -103.79 146.8 -113.79 150.3 -103.79 143.3 -103.79"/></g><g id="node3" class="node"><title>NextBlockGeneratorService</title><ellipse cx="316" cy="-66.8" fill="#fdb462" stroke="#000" rx="120.36" ry="18"/><text x="316" y="-62.6" font-family="Times,serif" font-size="14" text-anchor="middle">NextBlockGeneratorService</text></g><g id="edge2" class="edge"><title>NextBlockGeneratorService-&gt;NextBlockGeneratorModule</title><path fill="none" stroke="#000" d="M246.83,-81.55C246.83,-81.55 246.83,-103.39 246.83,-103.39"/><polygon fill="#000" stroke="#000" points="243.33 -103.39 246.83 -113.39 250.33 -103.39 243.33 -103.39"/></g></g></svg>