<svg xmlns="http://www.w3.org/2000/svg" xmlns:xlink="http://www.w3.org/1999/xlink" width="380pt" height="232" viewBox="0 0 380 173.8"><g id="graph0" class="graph" transform="scale(1 1) rotate(0) translate(4 169.8)"><title>dependencies</title><polygon fill="#fff" stroke="transparent" points="-4 4 -4 -169.8 376 -169.8 376 4 -4 4"/><text x="186" y="-8.2" font-family="sans-serif" font-size="14" text-anchor="middle">dependencies</text><g id="clust1" class="cluster"><title>cluster_GameModule</title><polygon fill="none" stroke="#000" stroke-dasharray="1 5" points="8 -32.8 8 -157.8 364 -157.8 364 -32.8 8 -32.8"/></g><g id="clust6" class="cluster"><title>cluster_GameModule_providers</title><polygon fill="none" stroke="#000" points="214 -40.8 214 -92.8 356 -92.8 356 -40.8 214 -40.8"/></g><g id="clust3" class="cluster"><title>cluster_GameModule_imports</title><polygon fill="none" stroke="#000" points="16 -40.8 16 -92.8 206 -92.8 206 -40.8 16 -40.8"/></g><g id="node1" class="node"><title>GameService</title><ellipse cx="285" cy="-66.8" fill="#8dd3c7" stroke="#000" rx="63.1" ry="18"/><text x="285" y="-62.6" font-family="Times,serif" font-size="14" text-anchor="middle">GameService</text></g><g id="node3" class="node"><title>GameModule</title><polygon fill="#8dd3c7" stroke="#000" points="331.48 -149.8 328.48 -153.8 307.48 -153.8 304.48 -149.8 238.52 -149.8 238.52 -113.8 331.48 -113.8 331.48 -149.8"/><text x="285" y="-127.6" font-family="Times,serif" font-size="14" text-anchor="middle">GameModule</text></g><g id="edge1" class="edge"><title>GameService-&gt;GameModule</title><path fill="none" stroke="#000" d="M269.5,-84.56C269.5,-84.56 269.5,-103.61 269.5,-103.61"/><polygon fill="#000" stroke="#000" points="266 -103.61 269.5 -113.61 273 -103.61 266 -103.61"/></g><g id="edge3" class="edge"><title>GameService-&gt;GameModule</title><path fill="none" stroke="#000" d="M300.5,-84.56C300.5,-84.56 300.5,-103.61 300.5,-103.61"/><polygon fill="#000" stroke="#000" points="297 -103.61 300.5 -113.61 304 -103.61 297 -103.61"/></g><g id="node2" class="node"><title>NextBlockGeneratorService</title><polygon fill="#8dd3c7" stroke="#000" points="198.09 -84.8 195.09 -88.8 174.09 -88.8 171.09 -84.8 23.91 -84.8 23.91 -48.8 198.09 -48.8 198.09 -84.8"/><text x="111" y="-62.6" font-family="Times,serif" font-size="14" text-anchor="middle">NextBlockGeneratorService</text></g><g id="edge2" class="edge"><title>NextBlockGeneratorService-&gt;GameModule</title><path fill="none" stroke="#000" d="M111,-84.91C111,-104.14 111,-131.8 111,-131.8 111,-131.8 228.37,-131.8 228.37,-131.8"/><polygon fill="#000" stroke="#000" points="228.37 -135.3 238.37 -131.8 228.37 -128.3 228.37 -135.3"/></g></g></svg>