<svg xmlns="http://www.w3.org/2000/svg" xmlns:xlink="http://www.w3.org/1999/xlink" width="260pt" height="232" viewBox="0 0 260 173.8"><g id="graph0" class="graph" transform="scale(1 1) rotate(0) translate(4 169.8)"><title>dependencies</title><polygon fill="#fff" stroke="transparent" points="-4 4 -4 -169.8 256 -169.8 256 4 -4 4"/><text x="126" y="-8.2" font-family="sans-serif" font-size="14" text-anchor="middle">dependencies</text><g id="clust1" class="cluster"><title>cluster_BlockGeneratorModule</title><polygon fill="none" stroke="#000" stroke-dasharray="1 5" points="8 -32.8 8 -157.8 244 -157.8 244 -32.8 8 -32.8"/></g><g id="clust6" class="cluster"><title>cluster_BlockGeneratorModule_providers</title><polygon fill="none" stroke="#000" points="16 -40.8 16 -92.8 236 -92.8 236 -40.8 16 -40.8"/></g><g id="node1" class="node"><title>BlockGeneratorService</title><ellipse cx="126" cy="-66.8" fill="#fdb462" stroke="#000" rx="101.82" ry="18"/><text x="126" y="-62.6" font-family="Times,serif" font-size="14" text-anchor="middle">BlockGeneratorService</text></g><g id="node2" class="node"><title>BlockGeneratorModule</title><polygon fill="#8dd3c7" stroke="#000" points="200.45 -149.8 197.45 -153.8 176.45 -153.8 173.45 -149.8 51.55 -149.8 51.55 -113.8 200.45 -113.8 200.45 -149.8"/><text x="126" y="-127.6" font-family="Times,serif" font-size="14" text-anchor="middle">BlockGeneratorModule</text></g><g id="edge1" class="edge"><title>BlockGeneratorService-&gt;BlockGeneratorModule</title><path fill="none" stroke="#000" d="M126,-84.91C126,-84.91 126,-103.79 126,-103.79"/><polygon fill="#000" stroke="#000" points="122.5 -103.79 126 -113.79 129.5 -103.79 122.5 -103.79"/></g></g></svg>