<?xml version="1.0" encoding="UTF-8" standalone="no"?>
<!DOCTYPE svg PUBLIC "-//W3C//DTD SVG 1.1//EN"
 "http://www.w3.org/Graphics/SVG/1.1/DTD/svg11.dtd">
<!-- Generated by graphviz version 2.47.3 (20210619.1520)
 -->
<!-- Title: dependencies Pages: 1 -->
<svg width="260pt" height="174pt"
 viewBox="0.00 0.00 260.00 173.80" xmlns="http://www.w3.org/2000/svg" xmlns:xlink="http://www.w3.org/1999/xlink">
<g id="graph0" class="graph" transform="scale(1 1) rotate(0) translate(4 169.8)">
<title>dependencies</title>
<polygon fill="white" stroke="transparent" points="-4,4 -4,-169.8 256,-169.8 256,4 -4,4"/>
<text text-anchor="middle" x="126" y="-8.2" font-family="sans-serif" font-size="14.00">dependencies</text>
<g id="clust1" class="cluster">
<title>cluster_BlockGeneratorModule</title>
<polygon fill="none" stroke="black" stroke-dasharray="1,5" points="8,-32.8 8,-157.8 244,-157.8 244,-32.8 8,-32.8"/>
</g>
<g id="clust6" class="cluster">
<title>cluster_BlockGeneratorModule_providers</title>
<polygon fill="none" stroke="black" points="16,-40.8 16,-92.8 236,-92.8 236,-40.8 16,-40.8"/>
</g>
<!-- BlockGeneratorService -->
<g id="node1" class="node">
<title>BlockGeneratorService</title>
<ellipse fill="#fdb462" stroke="black" cx="126" cy="-66.8" rx="101.82" ry="18"/>
<text text-anchor="middle" x="126" y="-62.6" font-family="Times,serif" font-size="14.00">BlockGeneratorService</text>
</g>
<!-- BlockGeneratorModule -->
<g id="node2" class="node">
<title>BlockGeneratorModule</title>
<polygon fill="#8dd3c7" stroke="black" points="200.45,-149.8 197.45,-153.8 176.45,-153.8 173.45,-149.8 51.55,-149.8 51.55,-113.8 200.45,-113.8 200.45,-149.8"/>
<text text-anchor="middle" x="126" y="-127.6" font-family="Times,serif" font-size="14.00">BlockGeneratorModule</text>
</g>
<!-- BlockGeneratorService&#45;&gt;BlockGeneratorModule -->
<g id="edge1" class="edge">
<title>BlockGeneratorService&#45;&gt;BlockGeneratorModule</title>
<path fill="none" stroke="black" d="M126,-84.91C126,-84.91 126,-103.79 126,-103.79"/>
<polygon fill="black" stroke="black" points="122.5,-103.79 126,-113.79 129.5,-103.79 122.5,-103.79"/>
</g>
</g>
</svg>
