<svg xmlns="http://www.w3.org/2000/svg" xmlns:xlink="http://www.w3.org/1999/xlink" width="816" height="232" viewBox="0 0 612 173.8"><g id="graph0" class="graph" transform="scale(1 1) rotate(0) translate(4 169.8)"><title>dependencies</title><polygon fill="#fff" stroke="transparent" points="-4 4 -4 -169.8 608 -169.8 608 4 -4 4"/><text x="302" y="-8.2" font-family="sans-serif" font-size="14" text-anchor="middle">dependencies</text><g id="clust1" class="cluster"><title>cluster_HoldZoneModule</title><polygon fill="none" stroke="#000" stroke-dasharray="1 5" points="8 -32.8 8 -157.8 596 -157.8 596 -32.8 8 -32.8"/></g><g id="clust3" class="cluster"><title>cluster_HoldZoneModule_imports</title><polygon fill="none" stroke="#000" points="140 -40.8 140 -92.8 588 -92.8 588 -40.8 140 -40.8"/></g><g id="clust6" class="cluster"><title>cluster_HoldZoneModule_providers</title><polygon fill="none" stroke="#000" points="16 -40.8 16 -92.8 132 -92.8 132 -40.8 16 -40.8"/></g><g id="node1" class="node"><title>GameService</title><polygon fill="#8dd3c7" stroke="#000" points="579.9 -84.8 576.9 -88.8 555.9 -88.8 552.9 -84.8 488.1 -84.8 488.1 -48.8 579.9 -48.8 579.9 -84.8"/><text x="534" y="-62.6" font-family="Times,serif" font-size="14" text-anchor="middle">GameService</text></g><g id="node4" class="node"><title>HoldZoneModule</title><polygon fill="#8dd3c7" stroke="#000" points="356.31 -149.8 353.31 -153.8 332.31 -153.8 329.31 -149.8 239.69 -149.8 239.69 -113.8 356.31 -113.8 356.31 -149.8"/><text x="298" y="-127.6" font-family="Times,serif" font-size="14" text-anchor="middle">HoldZoneModule</text></g><g id="edge1" class="edge"><title>GameService-&gt;HoldZoneModule</title><path fill="none" stroke="#000" d="M534,-84.91C534,-104.14 534,-131.8 534,-131.8 534,-131.8 366.34,-131.8 366.34,-131.8"/><polygon fill="#000" stroke="#000" points="366.34 -128.3 356.34 -131.8 366.34 -135.3 366.34 -128.3"/></g><g id="node2" class="node"><title>NextBlockGeneratorService</title><polygon fill="#8dd3c7" stroke="#000" points="470.09 -84.8 467.09 -88.8 446.09 -88.8 443.09 -84.8 295.91 -84.8 295.91 -48.8 470.09 -48.8 470.09 -84.8"/><text x="383" y="-62.6" font-family="Times,serif" font-size="14" text-anchor="middle">NextBlockGeneratorService</text></g><g id="edge2" class="edge"><title>NextBlockGeneratorService-&gt;HoldZoneModule</title><path fill="none" stroke="#000" d="M325.93,-84.91C325.93,-84.91 325.93,-103.79 325.93,-103.79"/><polygon fill="#000" stroke="#000" points="322.43 -103.79 325.93 -113.79 329.43 -103.79 322.43 -103.79"/></g><g id="node3" class="node"><title>ZoneFactoryService</title><polygon fill="#8dd3c7" stroke="#000" points="277.51 -84.8 274.51 -88.8 253.51 -88.8 250.51 -84.8 148.49 -84.8 148.49 -48.8 277.51 -48.8 277.51 -84.8"/><text x="213" y="-62.6" font-family="Times,serif" font-size="14" text-anchor="middle">ZoneFactoryService</text></g><g id="edge3" class="edge"><title>ZoneFactoryService-&gt;HoldZoneModule</title><path fill="none" stroke="#000" d="M258.8,-84.91C258.8,-84.91 258.8,-103.79 258.8,-103.79"/><polygon fill="#000" stroke="#000" points="255.3 -103.79 258.8 -113.79 262.3 -103.79 255.3 -103.79"/></g><g id="node5" class="node"><title>HoldZone</title><ellipse cx="74" cy="-66.8" fill="#fdb462" stroke="#000" rx="50.38" ry="18"/><text x="74" y="-62.6" font-family="Times,serif" font-size="14" text-anchor="middle">HoldZone</text></g><g id="edge4" class="edge"><title>HoldZone-&gt;HoldZoneModule</title><path fill="none" stroke="#000" d="M74,-84.91C74,-104.14 74,-131.8 74,-131.8 74,-131.8 229.73,-131.8 229.73,-131.8"/><polygon fill="#000" stroke="#000" points="229.73 -135.3 239.73 -131.8 229.73 -128.3 229.73 -135.3"/></g></g></svg>