<?xml version="1.0" encoding="UTF-8" standalone="no"?>
<!DOCTYPE svg PUBLIC "-//W3C//DTD SVG 1.1//EN"
 "http://www.w3.org/Graphics/SVG/1.1/DTD/svg11.dtd">
<!-- Generated by graphviz version 2.47.3 (20210619.1520)
 -->
<!-- Title: dependencies Pages: 1 -->
<svg width="612pt" height="174pt"
 viewBox="0.00 0.00 612.00 173.80" xmlns="http://www.w3.org/2000/svg" xmlns:xlink="http://www.w3.org/1999/xlink">
<g id="graph0" class="graph" transform="scale(1 1) rotate(0) translate(4 169.8)">
<title>dependencies</title>
<polygon fill="white" stroke="transparent" points="-4,4 -4,-169.8 608,-169.8 608,4 -4,4"/>
<text text-anchor="middle" x="302" y="-8.2" font-family="sans-serif" font-size="14.00">dependencies</text>
<g id="clust1" class="cluster">
<title>cluster_HoldZoneModule</title>
<polygon fill="none" stroke="black" stroke-dasharray="1,5" points="8,-32.8 8,-157.8 596,-157.8 596,-32.8 8,-32.8"/>
</g>
<g id="clust3" class="cluster">
<title>cluster_HoldZoneModule_imports</title>
<polygon fill="none" stroke="black" points="140,-40.8 140,-92.8 588,-92.8 588,-40.8 140,-40.8"/>
</g>
<g id="clust6" class="cluster">
<title>cluster_HoldZoneModule_providers</title>
<polygon fill="none" stroke="black" points="16,-40.8 16,-92.8 132,-92.8 132,-40.8 16,-40.8"/>
</g>
<!-- GameService -->
<g id="node1" class="node">
<title>GameService</title>
<polygon fill="#8dd3c7" stroke="black" points="579.9,-84.8 576.9,-88.8 555.9,-88.8 552.9,-84.8 488.1,-84.8 488.1,-48.8 579.9,-48.8 579.9,-84.8"/>
<text text-anchor="middle" x="534" y="-62.6" font-family="Times,serif" font-size="14.00">GameService</text>
</g>
<!-- HoldZoneModule -->
<g id="node4" class="node">
<title>HoldZoneModule</title>
<polygon fill="#8dd3c7" stroke="black" points="356.31,-149.8 353.31,-153.8 332.31,-153.8 329.31,-149.8 239.69,-149.8 239.69,-113.8 356.31,-113.8 356.31,-149.8"/>
<text text-anchor="middle" x="298" y="-127.6" font-family="Times,serif" font-size="14.00">HoldZoneModule</text>
</g>
<!-- GameService&#45;&gt;HoldZoneModule -->
<g id="edge1" class="edge">
<title>GameService&#45;&gt;HoldZoneModule</title>
<path fill="none" stroke="black" d="M534,-84.91C534,-104.14 534,-131.8 534,-131.8 534,-131.8 366.34,-131.8 366.34,-131.8"/>
<polygon fill="black" stroke="black" points="366.34,-128.3 356.34,-131.8 366.34,-135.3 366.34,-128.3"/>
</g>
<!-- NextBlockGeneratorService -->
<g id="node2" class="node">
<title>NextBlockGeneratorService</title>
<polygon fill="#8dd3c7" stroke="black" points="470.09,-84.8 467.09,-88.8 446.09,-88.8 443.09,-84.8 295.91,-84.8 295.91,-48.8 470.09,-48.8 470.09,-84.8"/>
<text text-anchor="middle" x="383" y="-62.6" font-family="Times,serif" font-size="14.00">NextBlockGeneratorService</text>
</g>
<!-- NextBlockGeneratorService&#45;&gt;HoldZoneModule -->
<g id="edge2" class="edge">
<title>NextBlockGeneratorService&#45;&gt;HoldZoneModule</title>
<path fill="none" stroke="black" d="M325.93,-84.91C325.93,-84.91 325.93,-103.79 325.93,-103.79"/>
<polygon fill="black" stroke="black" points="322.43,-103.79 325.93,-113.79 329.43,-103.79 322.43,-103.79"/>
</g>
<!-- ZoneFactoryService -->
<g id="node3" class="node">
<title>ZoneFactoryService</title>
<polygon fill="#8dd3c7" stroke="black" points="277.51,-84.8 274.51,-88.8 253.51,-88.8 250.51,-84.8 148.49,-84.8 148.49,-48.8 277.51,-48.8 277.51,-84.8"/>
<text text-anchor="middle" x="213" y="-62.6" font-family="Times,serif" font-size="14.00">ZoneFactoryService</text>
</g>
<!-- ZoneFactoryService&#45;&gt;HoldZoneModule -->
<g id="edge3" class="edge">
<title>ZoneFactoryService&#45;&gt;HoldZoneModule</title>
<path fill="none" stroke="black" d="M258.8,-84.91C258.8,-84.91 258.8,-103.79 258.8,-103.79"/>
<polygon fill="black" stroke="black" points="255.3,-103.79 258.8,-113.79 262.3,-103.79 255.3,-103.79"/>
</g>
<!-- HoldZone -->
<g id="node5" class="node">
<title>HoldZone</title>
<ellipse fill="#fdb462" stroke="black" cx="74" cy="-66.8" rx="50.38" ry="18"/>
<text text-anchor="middle" x="74" y="-62.6" font-family="Times,serif" font-size="14.00">HoldZone</text>
</g>
<!-- HoldZone&#45;&gt;HoldZoneModule -->
<g id="edge4" class="edge">
<title>HoldZone&#45;&gt;HoldZoneModule</title>
<path fill="none" stroke="black" d="M74,-84.91C74,-104.14 74,-131.8 74,-131.8 74,-131.8 229.73,-131.8 229.73,-131.8"/>
<polygon fill="black" stroke="black" points="229.73,-135.3 239.73,-131.8 229.73,-128.3 229.73,-135.3"/>
</g>
</g>
</svg>
