<?xml version="1.0" encoding="UTF-8" standalone="no"?>
<!DOCTYPE svg PUBLIC "-//W3C//DTD SVG 1.1//EN"
 "http://www.w3.org/Graphics/SVG/1.1/DTD/svg11.dtd">
<!-- Generated by graphviz version 2.47.3 (20210619.1520)
 -->
<!-- Title: dependencies Pages: 1 -->
<svg width="542pt" height="174pt"
 viewBox="0.00 0.00 542.00 173.80" xmlns="http://www.w3.org/2000/svg" xmlns:xlink="http://www.w3.org/1999/xlink">
<g id="graph0" class="graph" transform="scale(1 1) rotate(0) translate(4 169.8)">
<title>dependencies</title>
<polygon fill="white" stroke="transparent" points="-4,4 -4,-169.8 538,-169.8 538,4 -4,4"/>
<text text-anchor="middle" x="267" y="-8.2" font-family="sans-serif" font-size="14.00">dependencies</text>
<g id="clust1" class="cluster">
<title>cluster_ZonefactoryModule</title>
<polygon fill="none" stroke="black" stroke-dasharray="1,5" points="8,-32.8 8,-157.8 526,-157.8 526,-32.8 8,-32.8"/>
</g>
<g id="clust3" class="cluster">
<title>cluster_ZonefactoryModule_imports</title>
<polygon fill="none" stroke="black" points="218,-40.8 218,-92.8 518,-92.8 518,-40.8 218,-40.8"/>
</g>
<g id="clust6" class="cluster">
<title>cluster_ZonefactoryModule_providers</title>
<polygon fill="none" stroke="black" points="16,-40.8 16,-92.8 210,-92.8 210,-40.8 16,-40.8"/>
</g>
<!-- GameService -->
<g id="node1" class="node">
<title>GameService</title>
<polygon fill="#8dd3c7" stroke="black" points="509.9,-84.8 506.9,-88.8 485.9,-88.8 482.9,-84.8 418.1,-84.8 418.1,-48.8 509.9,-48.8 509.9,-84.8"/>
<text text-anchor="middle" x="464" y="-62.6" font-family="Times,serif" font-size="14.00">GameService</text>
</g>
<!-- ZonefactoryModule -->
<g id="node3" class="node">
<title>ZonefactoryModule</title>
<polygon fill="#8dd3c7" stroke="black" points="376.96,-149.8 373.96,-153.8 352.96,-153.8 349.96,-149.8 249.04,-149.8 249.04,-113.8 376.96,-113.8 376.96,-149.8"/>
<text text-anchor="middle" x="313" y="-127.6" font-family="Times,serif" font-size="14.00">ZonefactoryModule</text>
</g>
<!-- GameService&#45;&gt;ZonefactoryModule -->
<g id="edge1" class="edge">
<title>GameService&#45;&gt;ZonefactoryModule</title>
<path fill="none" stroke="black" d="M464,-84.91C464,-104.14 464,-131.8 464,-131.8 464,-131.8 387.04,-131.8 387.04,-131.8"/>
<polygon fill="black" stroke="black" points="387.04,-128.3 377.04,-131.8 387.04,-135.3 387.04,-128.3"/>
</g>
<!-- NextBlockGeneratorService -->
<g id="node2" class="node">
<title>NextBlockGeneratorService</title>
<polygon fill="#8dd3c7" stroke="black" points="400.09,-84.8 397.09,-88.8 376.09,-88.8 373.09,-84.8 225.91,-84.8 225.91,-48.8 400.09,-48.8 400.09,-84.8"/>
<text text-anchor="middle" x="313" y="-62.6" font-family="Times,serif" font-size="14.00">NextBlockGeneratorService</text>
</g>
<!-- NextBlockGeneratorService&#45;&gt;ZonefactoryModule -->
<g id="edge2" class="edge">
<title>NextBlockGeneratorService&#45;&gt;ZonefactoryModule</title>
<path fill="none" stroke="black" d="M313,-84.91C313,-84.91 313,-103.79 313,-103.79"/>
<polygon fill="black" stroke="black" points="309.5,-103.79 313,-113.79 316.5,-103.79 309.5,-103.79"/>
</g>
<!-- ZoneFactoryService -->
<g id="node4" class="node">
<title>ZoneFactoryService</title>
<ellipse fill="#fdb462" stroke="black" cx="113" cy="-66.8" rx="89.16" ry="18"/>
<text text-anchor="middle" x="113" y="-62.6" font-family="Times,serif" font-size="14.00">ZoneFactoryService</text>
</g>
<!-- ZoneFactoryService&#45;&gt;ZonefactoryModule -->
<g id="edge3" class="edge">
<title>ZoneFactoryService&#45;&gt;ZonefactoryModule</title>
<path fill="none" stroke="black" d="M113,-84.91C113,-104.14 113,-131.8 113,-131.8 113,-131.8 238.89,-131.8 238.89,-131.8"/>
<polygon fill="black" stroke="black" points="238.89,-135.3 248.89,-131.8 238.89,-128.3 238.89,-135.3"/>
</g>
</g>
</svg>
