<svg xmlns="http://www.w3.org/2000/svg" xmlns:xlink="http://www.w3.org/1999/xlink" width="542pt" height="232" viewBox="0 0 542 173.8"><g id="graph0" class="graph" transform="scale(1 1) rotate(0) translate(4 169.8)"><title>dependencies</title><polygon fill="#fff" stroke="transparent" points="-4 4 -4 -169.8 538 -169.8 538 4 -4 4"/><text x="267" y="-8.2" font-family="sans-serif" font-size="14" text-anchor="middle">dependencies</text><g id="clust1" class="cluster"><title>cluster_ZonefactoryModule</title><polygon fill="none" stroke="#000" stroke-dasharray="1 5" points="8 -32.8 8 -157.8 526 -157.8 526 -32.8 8 -32.8"/></g><g id="clust3" class="cluster"><title>cluster_ZonefactoryModule_imports</title><polygon fill="none" stroke="#000" points="218 -40.8 218 -92.8 518 -92.8 518 -40.8 218 -40.8"/></g><g id="clust6" class="cluster"><title>cluster_ZonefactoryModule_providers</title><polygon fill="none" stroke="#000" points="16 -40.8 16 -92.8 210 -92.8 210 -40.8 16 -40.8"/></g><g id="node1" class="node"><title>GameService</title><polygon fill="#8dd3c7" stroke="#000" points="509.9 -84.8 506.9 -88.8 485.9 -88.8 482.9 -84.8 418.1 -84.8 418.1 -48.8 509.9 -48.8 509.9 -84.8"/><text x="464" y="-62.6" font-family="Times,serif" font-size="14" text-anchor="middle">GameService</text></g><g id="node3" class="node"><title>ZonefactoryModule</title><polygon fill="#8dd3c7" stroke="#000" points="376.96 -149.8 373.96 -153.8 352.96 -153.8 349.96 -149.8 249.04 -149.8 249.04 -113.8 376.96 -113.8 376.96 -149.8"/><text x="313" y="-127.6" font-family="Times,serif" font-size="14" text-anchor="middle">ZonefactoryModule</text></g><g id="edge1" class="edge"><title>GameService-&gt;ZonefactoryModule</title><path fill="none" stroke="#000" d="M464,-84.91C464,-104.14 464,-131.8 464,-131.8 464,-131.8 387.04,-131.8 387.04,-131.8"/><polygon fill="#000" stroke="#000" points="387.04 -128.3 377.04 -131.8 387.04 -135.3 387.04 -128.3"/></g><g id="node2" class="node"><title>NextBlockGeneratorService</title><polygon fill="#8dd3c7" stroke="#000" points="400.09 -84.8 397.09 -88.8 376.09 -88.8 373.09 -84.8 225.91 -84.8 225.91 -48.8 400.09 -48.8 400.09 -84.8"/><text x="313" y="-62.6" font-family="Times,serif" font-size="14" text-anchor="middle">NextBlockGeneratorService</text></g><g id="edge2" class="edge"><title>NextBlockGeneratorService-&gt;ZonefactoryModule</title><path fill="none" stroke="#000" d="M313,-84.91C313,-84.91 313,-103.79 313,-103.79"/><polygon fill="#000" stroke="#000" points="309.5 -103.79 313 -113.79 316.5 -103.79 309.5 -103.79"/></g><g id="node4" class="node"><title>ZoneFactoryService</title><ellipse cx="113" cy="-66.8" fill="#fdb462" stroke="#000" rx="89.16" ry="18"/><text x="113" y="-62.6" font-family="Times,serif" font-size="14" text-anchor="middle">ZoneFactoryService</text></g><g id="edge3" class="edge"><title>ZoneFactoryService-&gt;ZonefactoryModule</title><path fill="none" stroke="#000" d="M113,-84.91C113,-104.14 113,-131.8 113,-131.8 113,-131.8 238.89,-131.8 238.89,-131.8"/><polygon fill="#000" stroke="#000" points="238.89 -135.3 248.89 -131.8 238.89 -128.3 238.89 -135.3"/></g></g></svg>