<svg xmlns="http://www.w3.org/2000/svg" xmlns:xlink="http://www.w3.org/1999/xlink" width="1895pt" height="232" viewBox="0 0 1895 173.8"><g id="graph0" class="graph" transform="scale(1 1) rotate(0) translate(4 169.8)"><title>dependencies</title><polygon fill="#fff" stroke="transparent" points="-4 4 -4 -169.8 1891 -169.8 1891 4 -4 4"/><text x="943.5" y="-8.2" font-family="sans-serif" font-size="14" text-anchor="middle">dependencies</text><g id="clust1" class="cluster"><title>cluster_AppModule</title><polygon fill="none" stroke="#000" stroke-dasharray="1 5" points="8 -32.8 8 -157.8 154 -157.8 154 -32.8 8 -32.8"/></g><g id="clust6" class="cluster"><title>cluster_AppModule_providers</title><polygon fill="none" stroke="#000" points="16 -40.8 16 -92.8 146 -92.8 146 -40.8 16 -40.8"/></g><g id="clust7" class="cluster"><title>cluster_BlockGeneratorModule</title><polygon fill="none" stroke="#000" stroke-dasharray="1 5" points="162 -32.8 162 -157.8 342 -157.8 342 -32.8 162 -32.8"/></g><g id="clust12" class="cluster"><title>cluster_BlockGeneratorModule_providers</title><polygon fill="none" stroke="#000" points="170 -40.8 170 -92.8 334 -92.8 334 -40.8 170 -40.8"/></g><g id="clust13" class="cluster"><title>cluster_GameModule</title><polygon fill="none" stroke="#000" stroke-dasharray="1 5" points="550 -32.8 550 -157.8 866 -157.8 866 -32.8 550 -32.8"/></g><g id="clust15" class="cluster"><title>cluster_GameModule_imports</title><polygon fill="none" stroke="#000" points="558 -40.8 558 -92.8 858 -92.8 858 -40.8 558 -40.8"/></g><g id="clust19" class="cluster"><title>cluster_GameZone</title><polygon fill="none" stroke="#000" stroke-dasharray="1 5" points="1026 -32.8 1026 -157.8 1236 -157.8 1236 -32.8 1026 -32.8"/></g><g id="clust21" class="cluster"><title>cluster_GameZone_imports</title><polygon fill="none" stroke="#000" points="1034 -40.8 1034 -92.8 1228 -92.8 1228 -40.8 1034 -40.8"/></g><g id="clust25" class="cluster"><title>cluster_HoldZoneModule</title><polygon fill="none" stroke="#000" stroke-dasharray="1 5" points="1244 -32.8 1244 -157.8 1376 -157.8 1376 -32.8 1244 -32.8"/></g><g id="clust30" class="cluster"><title>cluster_HoldZoneModule_providers</title><polygon fill="none" stroke="#000" points="1252 -40.8 1252 -92.8 1368 -92.8 1368 -40.8 1252 -40.8"/></g><g id="clust31" class="cluster"><title>cluster_NextBlockGeneratorModule</title><polygon fill="none" stroke="#000" stroke-dasharray="1 5" points="350 -105.8 350 -157.8 542 -157.8 542 -105.8 350 -105.8"/></g><g id="clust37" class="cluster"><title>cluster_PlayerModule</title><polygon fill="none" stroke="#000" stroke-dasharray="1 5" points="1530 -32.8 1530 -157.8 1879 -157.8 1879 -32.8 1530 -32.8"/></g><g id="clust42" class="cluster"><title>cluster_PlayerModule_providers</title><polygon fill="none" stroke="#000" points="1538 -40.8 1538 -92.8 1871 -92.8 1871 -40.8 1538 -40.8"/></g><g id="clust43" class="cluster"><title>cluster_ScoreZoneModule</title><polygon fill="none" stroke="#000" stroke-dasharray="1 5" points="1384 -32.8 1384 -157.8 1522 -157.8 1522 -32.8 1384 -32.8"/></g><g id="clust48" class="cluster"><title>cluster_ScoreZoneModule_providers</title><polygon fill="none" stroke="#000" points="1392 -40.8 1392 -92.8 1514 -92.8 1514 -40.8 1392 -40.8"/></g><g id="clust49" class="cluster"><title>cluster_ZonefactoryModule</title><polygon fill="none" stroke="#000" stroke-dasharray="1 5" points="874 -105.8 874 -157.8 1018 -157.8 1018 -105.8 874 -105.8"/></g><g id="node1" class="node"><title>AppService</title><ellipse cx="81" cy="-66.8" fill="#fdb462" stroke="#000" rx="56.74" ry="18"/><text x="81" y="-62.6" font-family="Times,serif" font-size="14" text-anchor="middle">AppService</text></g><g id="node2" class="node"><title>AppModule</title><polygon fill="#8dd3c7" stroke="#000" points="122.66 -149.8 119.66 -153.8 98.66 -153.8 95.66 -149.8 39.34 -149.8 39.34 -113.8 122.66 -113.8 122.66 -149.8"/><text x="81" y="-127.6" font-family="Times,serif" font-size="14" text-anchor="middle">AppModule</text></g><g id="edge1" class="edge"><title>AppService-&gt;AppModule</title><path fill="none" stroke="#000" d="M81,-84.91C81,-84.91 81,-103.79 81,-103.79"/><polygon fill="#000" stroke="#000" points="77.5 -103.79 81 -113.79 84.5 -103.79 77.5 -103.79"/></g><g id="node3" class="node"><title>BlockGeneratorService</title><polygon fill="#fdb462" stroke="#000" points="325.88 -84.8 322.88 -88.8 301.88 -88.8 298.88 -84.8 178.12 -84.8 178.12 -48.8 325.88 -48.8 325.88 -84.8"/><text x="252" y="-62.6" font-family="Times,serif" font-size="14" text-anchor="middle">BlockGeneratorService</text></g><g id="node4" class="node"><title>BlockGeneratorModule</title><polygon fill="#8dd3c7" stroke="#000" points="326.45 -149.8 323.45 -153.8 302.45 -153.8 299.45 -149.8 177.55 -149.8 177.55 -113.8 326.45 -113.8 326.45 -149.8"/><text x="252" y="-127.6" font-family="Times,serif" font-size="14" text-anchor="middle">BlockGeneratorModule</text></g><g id="edge2" class="edge"><title>BlockGeneratorService-&gt;BlockGeneratorModule</title><path fill="none" stroke="#000" d="M252,-84.91C252,-84.91 252,-103.79 252,-103.79"/><polygon fill="#000" stroke="#000" points="248.5 -103.79 252 -113.79 255.5 -103.79 248.5 -103.79"/></g><g id="node12" class="node"><title>NextBlockGeneratorModule</title><polygon fill="#8dd3c7" stroke="#000" points="534.17 -149.8 531.17 -153.8 510.17 -153.8 507.17 -149.8 357.83 -149.8 357.83 -113.8 534.17 -113.8 534.17 -149.8"/><text x="446" y="-127.6" font-family="Times,serif" font-size="14" text-anchor="middle">NextBlockGeneratorModule</text></g><g id="edge14" class="edge"><title>BlockGeneratorService-&gt;NextBlockGeneratorModule</title><path fill="none" stroke="#000" d="M325.9,-66.8C380.72,-66.8 446,-66.8 446,-66.8 446,-66.8 446,-103.69 446,-103.69"/><polygon fill="#000" stroke="#000" points="442.5 -103.69 446 -113.69 449.5 -103.69 442.5 -103.69"/></g><g id="node5" class="node"><title>GameService</title><polygon fill="#8dd3c7" stroke="#000" points="849.9 -84.8 846.9 -88.8 825.9 -88.8 822.9 -84.8 758.1 -84.8 758.1 -48.8 849.9 -48.8 849.9 -84.8"/><text x="804" y="-62.6" font-family="Times,serif" font-size="14" text-anchor="middle">GameService</text></g><g id="node7" class="node"><title>GameModule</title><polygon fill="#8dd3c7" stroke="#000" points="850.48 -149.8 847.48 -153.8 826.48 -153.8 823.48 -149.8 757.52 -149.8 757.52 -113.8 850.48 -113.8 850.48 -149.8"/><text x="804" y="-127.6" font-family="Times,serif" font-size="14" text-anchor="middle">GameModule</text></g><g id="edge3" class="edge"><title>GameService-&gt;GameModule</title><path fill="none" stroke="#000" d="M788.77,-84.91C788.77,-84.91 788.77,-103.79 788.77,-103.79"/><polygon fill="#000" stroke="#000" points="785.27 -103.79 788.77 -113.79 792.27 -103.79 785.27 -103.79"/></g><g id="edge5" class="edge"><title>GameService-&gt;GameModule</title><path fill="none" stroke="#000" d="M773.53,-84.91C773.53,-84.91 773.53,-103.79 773.53,-103.79"/><polygon fill="#000" stroke="#000" points="770.03 -103.79 773.53 -113.79 777.03 -103.79 770.03 -103.79"/></g><g id="node9" class="node"><title>GameZone</title><polygon fill="#8dd3c7" stroke="#000" points="1141.19 -149.8 1138.19 -153.8 1117.19 -153.8 1114.19 -149.8 1062.81 -149.8 1062.81 -113.8 1141.19 -113.8 1141.19 -149.8"/><text x="1102" y="-127.6" font-family="Times,serif" font-size="14" text-anchor="middle">GameZone</text></g><g id="edge6" class="edge"><title>GameService-&gt;GameZone</title><path fill="none" stroke="#000" d="M849.96,-60.8C914.94,-60.8 1025.82,-60.8 1025.82,-60.8 1025.82,-60.8 1025.82,-125.8 1025.82,-125.8 1025.82,-125.8 1052.57,-125.8 1052.57,-125.8"/><polygon fill="#000" stroke="#000" points="1052.57 -129.3 1062.57 -125.8 1052.57 -122.3 1052.57 -129.3"/></g><g id="node10" class="node"><title>HoldZoneModule</title><polygon fill="#8dd3c7" stroke="#000" points="1368.31 -149.8 1365.31 -153.8 1344.31 -153.8 1341.31 -149.8 1251.69 -149.8 1251.69 -113.8 1368.31 -113.8 1368.31 -149.8"/><text x="1310" y="-127.6" font-family="Times,serif" font-size="14" text-anchor="middle">HoldZoneModule</text></g><g id="edge10" class="edge"><title>GameService-&gt;HoldZoneModule</title><path fill="none" stroke="#000" d="M804,-84.93C804,-95.11 804,-105.8 804,-105.8 804,-105.8 1254.5,-105.8 1254.5,-105.8 1254.5,-105.8 1254.5,-106.59 1254.5,-106.59"/><polygon fill="#000" stroke="#000" points="1251 -103.74 1254.5 -113.74 1258 -103.74 1251 -103.74"/></g><g id="node14" class="node"><title>PlayerModule</title><polygon fill="#8dd3c7" stroke="#000" points="1655.81 -149.8 1652.81 -153.8 1631.81 -153.8 1628.81 -149.8 1560.19 -149.8 1560.19 -113.8 1655.81 -113.8 1655.81 -149.8"/><text x="1608" y="-127.6" font-family="Times,serif" font-size="14" text-anchor="middle">PlayerModule</text></g><g id="edge17" class="edge"><title>GameService-&gt;PlayerModule</title><path fill="none" stroke="#000" d="M834.47,-84.88C834.47,-86.65 834.47,-87.8 834.47,-87.8 834.47,-87.8 1608,-87.8 1608,-87.8 1608,-87.8 1608,-103.65 1608,-103.65"/><polygon fill="#000" stroke="#000" points="1604.5 -103.65 1608 -113.65 1611.5 -103.65 1604.5 -103.65"/></g><g id="node16" class="node"><title>ScoreZoneModule</title><polygon fill="#8dd3c7" stroke="#000" points="1512.19 -149.8 1509.19 -153.8 1488.19 -153.8 1485.19 -149.8 1391.81 -149.8 1391.81 -113.8 1512.19 -113.8 1512.19 -149.8"/><text x="1452" y="-127.6" font-family="Times,serif" font-size="14" text-anchor="middle">ScoreZoneModule</text></g><g id="edge20" class="edge"><title>GameService-&gt;ScoreZoneModule</title><path fill="none" stroke="#000" d="M819.23,-84.94C819.23,-91.26 819.23,-96.8 819.23,-96.8 819.23,-96.8 1396.02,-96.8 1396.02,-96.8 1396.02,-96.8 1396.02,-103.48 1396.02,-103.48"/><polygon fill="#000" stroke="#000" points="1392.52 -103.48 1396.02 -113.48 1399.52 -103.48 1392.52 -103.48"/></g><g id="node18" class="node"><title>ZonefactoryModule</title><polygon fill="#8dd3c7" stroke="#000" points="1009.96 -149.8 1006.96 -153.8 985.96 -153.8 982.96 -149.8 882.04 -149.8 882.04 -113.8 1009.96 -113.8 1009.96 -149.8"/><text x="946" y="-127.6" font-family="Times,serif" font-size="14" text-anchor="middle">ZonefactoryModule</text></g><g id="edge24" class="edge"><title>GameService-&gt;ZonefactoryModule</title><path fill="none" stroke="#000" d="M849.93,-72.8C898.24,-72.8 967.33,-72.8 967.33,-72.8 967.33,-72.8 967.33,-103.78 967.33,-103.78"/><polygon fill="#000" stroke="#000" points="963.83 -103.78 967.33 -113.78 970.83 -103.78 963.83 -103.78"/></g><g id="node6" class="node"><title>NextBlockGeneratorService</title><polygon fill="#8dd3c7" stroke="#000" points="740.09 -84.8 737.09 -88.8 716.09 -88.8 713.09 -84.8 565.91 -84.8 565.91 -48.8 740.09 -48.8 740.09 -84.8"/><text x="653" y="-62.6" font-family="Times,serif" font-size="14" text-anchor="middle">NextBlockGeneratorService</text></g><g id="edge4" class="edge"><title>NextBlockGeneratorService-&gt;GameModule</title><path fill="none" stroke="#000" d="M718.47,-85.08C718.47,-106.12 718.47,-137.8 718.47,-137.8 718.47,-137.8 747.23,-137.8 747.23,-137.8"/><polygon fill="#000" stroke="#000" points="747.23 -141.3 757.23 -137.8 747.23 -134.3 747.23 -141.3"/></g><g id="edge7" class="edge"><title>NextBlockGeneratorService-&gt;GameZone</title><path fill="none" stroke="#000" d="M609.35,-84.86C609.35,-96.24 609.35,-108.8 609.35,-108.8 609.35,-108.8 1082.45,-108.8 1082.45,-108.8 1082.45,-108.8 1082.45,-109.29 1082.45,-109.29"/><polygon fill="#000" stroke="#000" points="1078.95 -103.68 1082.45 -113.68 1085.95 -103.68 1078.95 -103.68"/></g><g id="edge11" class="edge"><title>NextBlockGeneratorService-&gt;HoldZoneModule</title><path fill="none" stroke="#000" d="M631.18,-85.22C631.18,-94.08 631.18,-102.8 631.18,-102.8 631.18,-102.8 1293.27,-102.8 1293.27,-102.8 1293.27,-102.8 1293.27,-103.88 1293.27,-103.88"/><polygon fill="#000" stroke="#000" points="1289.77 -103.6 1293.27 -113.6 1296.77 -103.6 1289.77 -103.6"/></g><g id="edge15" class="edge"><title>NextBlockGeneratorService-&gt;NextBlockGeneratorModule</title><path fill="none" stroke="#000" d="M696.65,-84.82C696.65,-102.17 696.65,-125.8 696.65,-125.8 696.65,-125.8 544.37,-125.8 544.37,-125.8"/><polygon fill="#000" stroke="#000" points="544.37 -122.3 534.37 -125.8 544.37 -129.3 544.37 -122.3"/></g><g id="edge18" class="edge"><title>NextBlockGeneratorService-&gt;PlayerModule</title><path fill="none" stroke="#000" d="M674.82,-84.99C674.82,-88.34 674.82,-90.8 674.82,-90.8 674.82,-90.8 1584.17,-90.8 1584.17,-90.8 1584.17,-90.8 1584.17,-103.7 1584.17,-103.7"/><polygon fill="#000" stroke="#000" points="1580.67 -103.7 1584.17 -113.7 1587.67 -103.7 1580.67 -103.7"/></g><g id="edge21" class="edge"><title>NextBlockGeneratorService-&gt;ScoreZoneModule</title><path fill="none" stroke="#000" d="M653,-84.84C653,-92.55 653,-99.8 653,-99.8 653,-99.8 1393.96,-99.8 1393.96,-99.8 1393.96,-99.8 1393.96,-103.56 1393.96,-103.56"/><polygon fill="#000" stroke="#000" points="1390.46 -103.56 1393.96 -113.56 1397.46 -103.56 1390.46 -103.56"/></g><g id="edge25" class="edge"><title>NextBlockGeneratorService-&gt;ZonefactoryModule</title><path fill="none" stroke="#000" d="M587.53,-84.84C587.53,-97.36 587.53,-111.8 587.53,-111.8 587.53,-111.8 924.67,-111.8 924.67,-111.8 924.67,-111.8 924.67,-111.98 924.67,-111.98"/><polygon fill="#000" stroke="#000" points="921.17 -103.65 924.67 -113.65 928.17 -103.65 921.17 -103.65"/></g><g id="node8" class="node"><title>ZoneFactoryService</title><ellipse cx="1131" cy="-66.8" fill="#8dd3c7" stroke="#000" rx="89.16" ry="18"/><text x="1131" y="-62.6" font-family="Times,serif" font-size="14" text-anchor="middle">ZoneFactoryService</text></g><g id="edge8" class="edge"><title>ZoneFactoryService-&gt;GameZone</title><path fill="none" stroke="#000" d="M1102,-83.88C1102,-83.88 1102,-103.7 1102,-103.7"/><polygon fill="#000" stroke="#000" points="1098.5 -103.7 1102 -113.7 1105.5 -103.7 1098.5 -103.7"/></g><g id="edge9" class="edge"><title>ZoneFactoryService-&gt;GameZone</title><path fill="none" stroke="#000" d="M1121.55,-84.91C1121.55,-84.91 1121.55,-103.79 1121.55,-103.79"/><polygon fill="#000" stroke="#000" points="1118.05 -103.79 1121.55 -113.79 1125.05 -103.79 1118.05 -103.79"/></g><g id="edge12" class="edge"><title>ZoneFactoryService-&gt;HoldZoneModule</title><path fill="none" stroke="#000" d="M1220.66,-66.8C1241.21,-66.8 1257.15,-66.8 1257.15,-66.8 1257.15,-66.8 1257.15,-103.69 1257.15,-103.69"/><polygon fill="#000" stroke="#000" points="1253.65 -103.69 1257.15 -113.69 1260.65 -103.69 1253.65 -103.69"/></g><g id="edge22" class="edge"><title>ZoneFactoryService-&gt;ScoreZoneModule</title><path fill="none" stroke="#000" d="M1180.71,-81.88C1180.71,-88.06 1180.71,-93.8 1180.71,-93.8 1180.71,-93.8 1398.08,-93.8 1398.08,-93.8 1398.08,-93.8 1398.08,-103.69 1398.08,-103.69"/><polygon fill="#000" stroke="#000" points="1394.58 -103.69 1398.08 -113.69 1401.58 -103.69 1394.58 -103.69"/></g><g id="edge26" class="edge"><title>ZoneFactoryService-&gt;ZonefactoryModule</title><path fill="none" stroke="#000" d="M1052.29,-75.51C1052.29,-94.47 1052.29,-137.8 1052.29,-137.8 1052.29,-137.8 1019.97,-137.8 1019.97,-137.8"/><polygon fill="#000" stroke="#000" points="1019.97 -134.3 1009.97 -137.8 1019.97 -141.3 1019.97 -134.3"/></g><g id="node11" class="node"><title>HoldZone</title><ellipse cx="1310" cy="-66.8" fill="#fdb462" stroke="#000" rx="50.38" ry="18"/><text x="1310" y="-62.6" font-family="Times,serif" font-size="14" text-anchor="middle">HoldZone</text></g><g id="edge13" class="edge"><title>HoldZone-&gt;HoldZoneModule</title><path fill="none" stroke="#000" d="M1326.73,-83.88C1326.73,-83.88 1326.73,-103.7 1326.73,-103.7"/><polygon fill="#000" stroke="#000" points="1323.23 -103.7 1326.73 -113.7 1330.23 -103.7 1323.23 -103.7"/></g><g id="node13" class="node"><title>PlayerService</title><ellipse cx="1798" cy="-66.8" fill="#fdb462" stroke="#000" rx="64.82" ry="18"/><text x="1798" y="-62.6" font-family="Times,serif" font-size="14" text-anchor="middle">PlayerService</text></g><g id="edge16" class="edge"><title>PlayerService-&gt;PlayerModule</title><path fill="none" stroke="#000" d="M1798,-84.91C1798,-104.14 1798,-131.8 1798,-131.8 1798,-131.8 1665.95,-131.8 1665.95,-131.8"/><polygon fill="#000" stroke="#000" points="1665.95 -128.3 1655.95 -131.8 1665.94 -135.3 1665.95 -128.3"/></g><g id="node15" class="node"><title>StartScreenService</title><ellipse cx="1631" cy="-66.8" fill="#fdb462" stroke="#000" rx="84.5" ry="18"/><text x="1631" y="-62.6" font-family="Times,serif" font-size="14" text-anchor="middle">StartScreenService</text></g><g id="edge19" class="edge"><title>StartScreenService-&gt;PlayerModule</title><path fill="none" stroke="#000" d="M1631.83,-84.91C1631.83,-84.91 1631.83,-103.79 1631.83,-103.79"/><polygon fill="#000" stroke="#000" points="1628.33 -103.79 1631.83 -113.79 1635.33 -103.79 1628.33 -103.79"/></g><g id="node17" class="node"><title>ScoreZone</title><ellipse cx="1453" cy="-66.8" fill="#fdb462" stroke="#000" rx="52.73" ry="18"/><text x="1453" y="-62.6" font-family="Times,serif" font-size="14" text-anchor="middle">ScoreZone</text></g><g id="edge23" class="edge"><title>ScoreZone-&gt;ScoreZoneModule</title><path fill="none" stroke="#000" d="M1453,-84.91C1453,-84.91 1453,-103.79 1453,-103.79"/><polygon fill="#000" stroke="#000" points="1449.5 -103.79 1453 -113.79 1456.5 -103.79 1449.5 -103.79"/></g></g></svg>