<svg xmlns="http://www.w3.org/2000/svg" xmlns:xlink="http://www.w3.org/1999/xlink" width="170pt" height="232" viewBox="0 0 170 173.8"><g id="graph0" class="graph" transform="scale(1 1) rotate(0) translate(4 169.8)"><title>dependencies</title><polygon fill="#fff" stroke="transparent" points="-4 4 -4 -169.8 166 -169.8 166 4 -4 4"/><text x="81" y="-8.2" font-family="sans-serif" font-size="14" text-anchor="middle">dependencies</text><g id="clust1" class="cluster"><title>cluster_AppModule</title><polygon fill="none" stroke="#000" stroke-dasharray="1 5" points="8 -32.8 8 -157.8 154 -157.8 154 -32.8 8 -32.8"/></g><g id="clust6" class="cluster"><title>cluster_AppModule_providers</title><polygon fill="none" stroke="#000" points="16 -40.8 16 -92.8 146 -92.8 146 -40.8 16 -40.8"/></g><g id="node1" class="node"><title>AppService</title><ellipse cx="81" cy="-66.8" fill="#fdb462" stroke="#000" rx="56.74" ry="18"/><text x="81" y="-62.6" font-family="Times,serif" font-size="14" text-anchor="middle">AppService</text></g><g id="node2" class="node"><title>AppModule</title><polygon fill="#8dd3c7" stroke="#000" points="122.66 -149.8 119.66 -153.8 98.66 -153.8 95.66 -149.8 39.34 -149.8 39.34 -113.8 122.66 -113.8 122.66 -149.8"/><text x="81" y="-127.6" font-family="Times,serif" font-size="14" text-anchor="middle">AppModule</text></g><g id="edge1" class="edge"><title>AppService-&gt;AppModule</title><path fill="none" stroke="#000" d="M81,-84.91C81,-84.91 81,-103.79 81,-103.79"/><polygon fill="#000" stroke="#000" points="77.5 -103.79 81 -113.79 84.5 -103.79 77.5 -103.79"/></g></g></svg>