<?xml version="1.0" encoding="UTF-8" standalone="no"?>
<!DOCTYPE svg PUBLIC "-//W3C//DTD SVG 1.1//EN"
 "http://www.w3.org/Graphics/SVG/1.1/DTD/svg11.dtd">
<!-- Generated by graphviz version 2.47.3 (20210619.1520)
 -->
<!-- Title: dependencies Pages: 1 -->
<svg width="618pt" height="174pt"
 viewBox="0.00 0.00 618.00 173.80" xmlns="http://www.w3.org/2000/svg" xmlns:xlink="http://www.w3.org/1999/xlink">
<g id="graph0" class="graph" transform="scale(1 1) rotate(0) translate(4 169.8)">
<title>dependencies</title>
<polygon fill="white" stroke="transparent" points="-4,4 -4,-169.8 614,-169.8 614,4 -4,4"/>
<text text-anchor="middle" x="305" y="-8.2" font-family="sans-serif" font-size="14.00">dependencies</text>
<g id="clust1" class="cluster">
<title>cluster_ScoreZoneModule</title>
<polygon fill="none" stroke="black" stroke-dasharray="1,5" points="8,-32.8 8,-157.8 602,-157.8 602,-32.8 8,-32.8"/>
</g>
<g id="clust6" class="cluster">
<title>cluster_ScoreZoneModule_providers</title>
<polygon fill="none" stroke="black" points="472,-40.8 472,-92.8 594,-92.8 594,-40.8 472,-40.8"/>
</g>
<g id="clust3" class="cluster">
<title>cluster_ScoreZoneModule_imports</title>
<polygon fill="none" stroke="black" points="16,-40.8 16,-92.8 464,-92.8 464,-40.8 16,-40.8"/>
</g>
<!-- GameService -->
<g id="node1" class="node">
<title>GameService</title>
<polygon fill="#8dd3c7" stroke="black" points="455.9,-84.8 452.9,-88.8 431.9,-88.8 428.9,-84.8 364.1,-84.8 364.1,-48.8 455.9,-48.8 455.9,-84.8"/>
<text text-anchor="middle" x="410" y="-62.6" font-family="Times,serif" font-size="14.00">GameService</text>
</g>
<!-- ScoreZoneModule -->
<g id="node4" class="node">
<title>ScoreZoneModule</title>
<polygon fill="#8dd3c7" stroke="black" points="394.19,-149.8 391.19,-153.8 370.19,-153.8 367.19,-149.8 273.81,-149.8 273.81,-113.8 394.19,-113.8 394.19,-149.8"/>
<text text-anchor="middle" x="334" y="-127.6" font-family="Times,serif" font-size="14.00">ScoreZoneModule</text>
</g>
<!-- GameService&#45;&gt;ScoreZoneModule -->
<g id="edge1" class="edge">
<title>GameService&#45;&gt;ScoreZoneModule</title>
<path fill="none" stroke="black" d="M379.2,-84.91C379.2,-84.91 379.2,-103.79 379.2,-103.79"/>
<polygon fill="black" stroke="black" points="375.7,-103.79 379.2,-113.79 382.7,-103.79 375.7,-103.79"/>
</g>
<!-- NextBlockGeneratorService -->
<g id="node2" class="node">
<title>NextBlockGeneratorService</title>
<polygon fill="#8dd3c7" stroke="black" points="346.09,-84.8 343.09,-88.8 322.09,-88.8 319.09,-84.8 171.91,-84.8 171.91,-48.8 346.09,-48.8 346.09,-84.8"/>
<text text-anchor="middle" x="259" y="-62.6" font-family="Times,serif" font-size="14.00">NextBlockGeneratorService</text>
</g>
<!-- NextBlockGeneratorService&#45;&gt;ScoreZoneModule -->
<g id="edge2" class="edge">
<title>NextBlockGeneratorService&#45;&gt;ScoreZoneModule</title>
<path fill="none" stroke="black" d="M310.1,-84.91C310.1,-84.91 310.1,-103.79 310.1,-103.79"/>
<polygon fill="black" stroke="black" points="306.6,-103.79 310.1,-113.79 313.6,-103.79 306.6,-103.79"/>
</g>
<!-- ZoneFactoryService -->
<g id="node3" class="node">
<title>ZoneFactoryService</title>
<polygon fill="#8dd3c7" stroke="black" points="153.51,-84.8 150.51,-88.8 129.51,-88.8 126.51,-84.8 24.49,-84.8 24.49,-48.8 153.51,-48.8 153.51,-84.8"/>
<text text-anchor="middle" x="89" y="-62.6" font-family="Times,serif" font-size="14.00">ZoneFactoryService</text>
</g>
<!-- ZoneFactoryService&#45;&gt;ScoreZoneModule -->
<g id="edge3" class="edge">
<title>ZoneFactoryService&#45;&gt;ScoreZoneModule</title>
<path fill="none" stroke="black" d="M89,-84.91C89,-104.14 89,-131.8 89,-131.8 89,-131.8 263.75,-131.8 263.75,-131.8"/>
<polygon fill="black" stroke="black" points="263.75,-135.3 273.75,-131.8 263.75,-128.3 263.75,-135.3"/>
</g>
<!-- ScoreZone -->
<g id="node5" class="node">
<title>ScoreZone</title>
<ellipse fill="#fdb462" stroke="black" cx="533" cy="-66.8" rx="52.73" ry="18"/>
<text text-anchor="middle" x="533" y="-62.6" font-family="Times,serif" font-size="14.00">ScoreZone</text>
</g>
<!-- ScoreZone&#45;&gt;ScoreZoneModule -->
<g id="edge4" class="edge">
<title>ScoreZone&#45;&gt;ScoreZoneModule</title>
<path fill="none" stroke="black" d="M533,-84.91C533,-104.14 533,-131.8 533,-131.8 533,-131.8 404.25,-131.8 404.25,-131.8"/>
<polygon fill="black" stroke="black" points="404.25,-128.3 394.25,-131.8 404.25,-135.3 404.25,-128.3"/>
</g>
</g>
</svg>
