<svg xmlns="http://www.w3.org/2000/svg" xmlns:xlink="http://www.w3.org/1999/xlink" width="824" height="232" viewBox="0 0 618 173.8"><g id="graph0" class="graph" transform="scale(1 1) rotate(0) translate(4 169.8)"><title>dependencies</title><polygon fill="#fff" stroke="transparent" points="-4 4 -4 -169.8 614 -169.8 614 4 -4 4"/><text x="305" y="-8.2" font-family="sans-serif" font-size="14" text-anchor="middle">dependencies</text><g id="clust1" class="cluster"><title>cluster_ScoreZoneModule</title><polygon fill="none" stroke="#000" stroke-dasharray="1 5" points="8 -32.8 8 -157.8 602 -157.8 602 -32.8 8 -32.8"/></g><g id="clust6" class="cluster"><title>cluster_ScoreZoneModule_providers</title><polygon fill="none" stroke="#000" points="472 -40.8 472 -92.8 594 -92.8 594 -40.8 472 -40.8"/></g><g id="clust3" class="cluster"><title>cluster_ScoreZoneModule_imports</title><polygon fill="none" stroke="#000" points="16 -40.8 16 -92.8 464 -92.8 464 -40.8 16 -40.8"/></g><g id="node1" class="node"><title>GameService</title><polygon fill="#8dd3c7" stroke="#000" points="455.9 -84.8 452.9 -88.8 431.9 -88.8 428.9 -84.8 364.1 -84.8 364.1 -48.8 455.9 -48.8 455.9 -84.8"/><text x="410" y="-62.6" font-family="Times,serif" font-size="14" text-anchor="middle">GameService</text></g><g id="node4" class="node"><title>ScoreZoneModule</title><polygon fill="#8dd3c7" stroke="#000" points="394.19 -149.8 391.19 -153.8 370.19 -153.8 367.19 -149.8 273.81 -149.8 273.81 -113.8 394.19 -113.8 394.19 -149.8"/><text x="334" y="-127.6" font-family="Times,serif" font-size="14" text-anchor="middle">ScoreZoneModule</text></g><g id="edge1" class="edge"><title>GameService-&gt;ScoreZoneModule</title><path fill="none" stroke="#000" d="M379.2,-84.91C379.2,-84.91 379.2,-103.79 379.2,-103.79"/><polygon fill="#000" stroke="#000" points="375.7 -103.79 379.2 -113.79 382.7 -103.79 375.7 -103.79"/></g><g id="node2" class="node"><title>NextBlockGeneratorService</title><polygon fill="#8dd3c7" stroke="#000" points="346.09 -84.8 343.09 -88.8 322.09 -88.8 319.09 -84.8 171.91 -84.8 171.91 -48.8 346.09 -48.8 346.09 -84.8"/><text x="259" y="-62.6" font-family="Times,serif" font-size="14" text-anchor="middle">NextBlockGeneratorService</text></g><g id="edge2" class="edge"><title>NextBlockGeneratorService-&gt;ScoreZoneModule</title><path fill="none" stroke="#000" d="M310.1,-84.91C310.1,-84.91 310.1,-103.79 310.1,-103.79"/><polygon fill="#000" stroke="#000" points="306.6 -103.79 310.1 -113.79 313.6 -103.79 306.6 -103.79"/></g><g id="node3" class="node"><title>ZoneFactoryService</title><polygon fill="#8dd3c7" stroke="#000" points="153.51 -84.8 150.51 -88.8 129.51 -88.8 126.51 -84.8 24.49 -84.8 24.49 -48.8 153.51 -48.8 153.51 -84.8"/><text x="89" y="-62.6" font-family="Times,serif" font-size="14" text-anchor="middle">ZoneFactoryService</text></g><g id="edge3" class="edge"><title>ZoneFactoryService-&gt;ScoreZoneModule</title><path fill="none" stroke="#000" d="M89,-84.91C89,-104.14 89,-131.8 89,-131.8 89,-131.8 263.75,-131.8 263.75,-131.8"/><polygon fill="#000" stroke="#000" points="263.75 -135.3 273.75 -131.8 263.75 -128.3 263.75 -135.3"/></g><g id="node5" class="node"><title>ScoreZone</title><ellipse cx="533" cy="-66.8" fill="#fdb462" stroke="#000" rx="52.73" ry="18"/><text x="533" y="-62.6" font-family="Times,serif" font-size="14" text-anchor="middle">ScoreZone</text></g><g id="edge4" class="edge"><title>ScoreZone-&gt;ScoreZoneModule</title><path fill="none" stroke="#000" d="M533,-84.91C533,-104.14 533,-131.8 533,-131.8 533,-131.8 404.25,-131.8 404.25,-131.8"/><polygon fill="#000" stroke="#000" points="404.25 -128.3 394.25 -131.8 404.25 -135.3 404.25 -128.3"/></g></g></svg>