<svg xmlns="http://www.w3.org/2000/svg" xmlns:xlink="http://www.w3.org/1999/xlink" width="248" height="232" viewBox="0 0 186 173.8"><g id="graph0" class="graph" transform="scale(1 1) rotate(0) translate(4 169.8)"><title>dependencies</title><polygon fill="#fff" stroke="transparent" points="-4 4 -4 -169.8 182 -169.8 182 4 -4 4"/><text x="89" y="-8.2" font-family="sans-serif" font-size="14" text-anchor="middle">dependencies</text><g id="clust1" class="cluster"><title>cluster_PlayerModule</title><polygon fill="none" stroke="#000" stroke-dasharray="1 5" points="8 -32.8 8 -157.8 170 -157.8 170 -32.8 8 -32.8"/></g><g id="clust6" class="cluster"><title>cluster_PlayerModule_providers</title><polygon fill="none" stroke="#000" points="16 -40.8 16 -92.8 162 -92.8 162 -40.8 16 -40.8"/></g><g id="node1" class="node"><title>PlayerService</title><ellipse cx="89" cy="-66.8" fill="#fdb462" stroke="#000" rx="64.82" ry="18"/><text x="89" y="-62.6" font-family="Times,serif" font-size="14" text-anchor="middle">PlayerService</text></g><g id="node2" class="node"><title>PlayerModule</title><polygon fill="#8dd3c7" stroke="#000" points="136.81 -149.8 133.81 -153.8 112.81 -153.8 109.81 -149.8 41.19 -149.8 41.19 -113.8 136.81 -113.8 136.81 -149.8"/><text x="89" y="-127.6" font-family="Times,serif" font-size="14" text-anchor="middle">PlayerModule</text></g><g id="edge1" class="edge"><title>PlayerService-&gt;PlayerModule</title><path fill="none" stroke="#000" d="M89,-84.91C89,-84.91 89,-103.79 89,-103.79"/><polygon fill="#000" stroke="#000" points="85.5 -103.79 89 -113.79 92.5 -103.79 85.5 -103.79"/></g></g></svg>